# xmcd CD database file
#
# Track frame offsets:
#	150
#	30560
#	80202
#	93367
#	113510
#	130037
#	151427
#	166417
#	231177
#	249750
#
# Disc length: 3559 seconds
#
# Revision: 0
# Processed by: cddbd v1.4PL0 Copyright (c) Steve Scherf et al.
# Submitted via: CDex 1.50Beta7
#
DISCID=6f0de50a
DTITLE=Angelwing - The Nymphaeum
DYEAR=2001
DGENRE=New Age
TTITLE0=Radical Seed (freedom of the nymph)
TTITLE1=the Nymphaeum part I a guitar duet, part II the orchestral theme
TTITLE2=the Nymphaeum part III an acoustic guitar theme
TTITLE3=the Nymphaeum part IV reprise
TTITLE4=the Nymphaeum part V piano themes
TTITLE5=What a beautiful Sunset!
TTITLE6=The Calling (nymph mix)
TTITLE7=Tears of Joy  intermission
TTITLE8=Radical Seed (radio mix)
TTITLE9=What a beautiful Sunset! (radio mix)
EXTD=YEAR: 2001
EXTT0=
EXTT1=
EXTT2=
EXTT3=
EXTT4=
EXTT5=
EXTT6=
EXTT7=
EXTT8=
EXTT9=
PLAYORDER=
